<svg xmlns="http://www.w3.org/2000/svg" xmlns:xlink="http://www.w3.org/1999/xlink" id="Livello_1" x="0px" y="0px" viewBox="0 0 218 262" style="enable-background:new 0 0 218 262;" xml:space="preserve"><style type="text/css">	.st0{fill:#B2B2B2;}	.st1{fill:#32378D;}	.st2{fill:#283583;}	.st3{fill:#4A4A49;}</style><g>	<path d="M84.1,175.6l1.2-3.2h4.7l1.2,3.2h1l-3.9-10.2h-1.1l-4,10.2H84.1L84.1,175.6z M87.6,166.2l2,5.4h-4L87.6,166.2L87.6,166.2z   M95.7,172.5c0,0.6,0.1,1,0.3,1.5c0.2,0.4,0.4,0.8,0.8,1c0.3,0.3,0.7,0.5,1.2,0.6c0.5,0.1,0.9,0.2,1.5,0.2c1.2,0,2.1-0.3,2.8-0.8  c0.7-0.5,1-1.3,1-2.2c0-0.5-0.1-0.9-0.2-1.2c-0.2-0.3-0.4-0.6-0.7-0.8c-0.3-0.2-0.6-0.4-0.9-0.5c-0.4-0.1-0.7-0.2-1.1-0.3  c-0.4-0.1-0.8-0.2-1.1-0.3c-0.4-0.1-0.7-0.2-1-0.3c-0.3-0.1-0.6-0.3-0.8-0.5c-0.2-0.2-0.3-0.5-0.4-0.8c0-0.3,0-0.5,0-0.8  c0.1-0.3,0.2-0.5,0.4-0.7c0.2-0.2,0.5-0.4,0.8-0.5c0.3-0.1,0.8-0.2,1.2-0.2c0.3,0,0.6,0,0.9,0.1c0.3,0.1,0.6,0.2,0.8,0.4  c0.2,0.2,0.4,0.4,0.6,0.7c0.1,0.3,0.2,0.6,0.2,1h0.9c0-0.4-0.1-0.8-0.2-1.2c-0.1-0.4-0.4-0.7-0.6-1c-0.3-0.3-0.6-0.5-1.1-0.7  c-0.4-0.2-0.9-0.2-1.5-0.2c-0.6,0-1.1,0.1-1.5,0.2c-0.4,0.2-0.8,0.4-1.1,0.6c-0.3,0.3-0.5,0.6-0.7,0.9c-0.1,0.3-0.2,0.7-0.2,1  c0,0.5,0.1,0.9,0.3,1.2c0.2,0.3,0.4,0.6,0.7,0.8c0.3,0.2,0.6,0.4,1,0.5c0.4,0.1,0.8,0.2,1.2,0.3c0.4,0.1,0.8,0.2,1.2,0.3  c0.4,0.1,0.7,0.2,1,0.4c0.3,0.2,0.5,0.4,0.7,0.6c0.2,0.2,0.3,0.6,0.3,1c0,0.3-0.1,0.6-0.2,0.8c-0.1,0.3-0.3,0.5-0.5,0.7  c-0.2,0.2-0.5,0.3-0.8,0.5c-0.3,0.1-0.7,0.2-1.2,0.2c-0.4,0-0.8,0-1.1-0.1c-0.3-0.1-0.6-0.2-0.9-0.4c-0.3-0.2-0.5-0.5-0.6-0.8  s-0.3-0.7-0.3-1.2H95.7L95.7,172.5z M107.1,172.5c0,0.6,0.1,1,0.3,1.5c0.2,0.4,0.4,0.8,0.8,1c0.3,0.3,0.7,0.5,1.2,0.6  c0.5,0.1,0.9,0.2,1.5,0.2c1.2,0,2.1-0.3,2.8-0.8c0.7-0.5,1-1.3,1-2.2c0-0.5-0.1-0.9-0.2-1.2c-0.2-0.3-0.4-0.6-0.7-0.8  c-0.3-0.2-0.6-0.4-0.9-0.5c-0.4-0.1-0.7-0.2-1.1-0.3c-0.4-0.1-0.8-0.2-1.1-0.3c-0.4-0.1-0.7-0.2-1-0.3c-0.3-0.1-0.6-0.3-0.8-0.5  c-0.2-0.2-0.3-0.5-0.4-0.8c0-0.3,0-0.5,0-0.8c0.1-0.3,0.2-0.5,0.4-0.7s0.5-0.4,0.8-0.5c0.3-0.1,0.8-0.2,1.2-0.2  c0.3,0,0.6,0,0.9,0.1c0.3,0.1,0.6,0.2,0.8,0.4c0.2,0.2,0.4,0.4,0.6,0.7c0.1,0.3,0.2,0.6,0.2,1h0.9c0-0.4-0.1-0.8-0.2-1.2  c-0.1-0.4-0.4-0.7-0.6-1c-0.3-0.3-0.6-0.5-1.1-0.7c-0.4-0.2-0.9-0.2-1.5-0.2c-0.6,0-1.1,0.1-1.5,0.2c-0.4,0.2-0.8,0.4-1.1,0.6  c-0.3,0.3-0.5,0.6-0.7,0.9c-0.1,0.3-0.2,0.7-0.2,1c0,0.5,0.1,0.9,0.3,1.2c0.2,0.3,0.4,0.6,0.7,0.8c0.3,0.2,0.6,0.4,1,0.5  c0.4,0.1,0.8,0.2,1.2,0.3c0.4,0.1,0.8,0.2,1.2,0.3c0.4,0.1,0.7,0.2,1,0.4c0.3,0.2,0.5,0.4,0.7,0.6c0.2,0.2,0.3,0.6,0.3,1  c0,0.3-0.1,0.6-0.1,0.8c-0.1,0.3-0.3,0.5-0.5,0.7c-0.2,0.2-0.5,0.3-0.8,0.5c-0.3,0.1-0.7,0.2-1.2,0.2c-0.4,0-0.8,0-1.1-0.1  c-0.3-0.1-0.6-0.2-0.9-0.4c-0.3-0.2-0.5-0.5-0.6-0.8s-0.3-0.7-0.3-1.2H107.1L107.1,172.5z M118.9,172.6c0.2,0.6,0.5,1.2,0.9,1.7  c0.4,0.5,0.9,0.9,1.5,1.2c0.6,0.3,1.3,0.4,2.1,0.4s1.5-0.1,2.1-0.4c0.6-0.3,1.1-0.7,1.5-1.2c0.4-0.5,0.7-1.1,0.9-1.7  c0.2-0.6,0.3-1.3,0.3-2.1c0-0.7-0.1-1.5-0.3-2.1c-0.2-0.7-0.5-1.2-0.9-1.7c-0.4-0.5-0.9-0.9-1.5-1.2c-0.6-0.3-1.3-0.4-2.1-0.4  c-0.8,0-1.4,0.1-2,0.4c-0.6,0.3-1.1,0.7-1.5,1.2c-0.4,0.5-0.7,1.1-0.9,1.7c-0.2,0.7-0.3,1.4-0.3,2.1  C118.6,171.2,118.7,171.9,118.9,172.6L118.9,172.6z M121.7,174.7c-0.5-0.2-0.9-0.6-1.2-1c-0.3-0.4-0.5-0.9-0.7-1.5  c-0.1-0.6-0.2-1.1-0.2-1.7c0-0.6,0.1-1.2,0.2-1.7s0.4-1,0.7-1.5c0.3-0.4,0.7-0.8,1.2-1c0.5-0.3,1-0.4,1.7-0.4  c0.6,0,1.1,0.1,1.6,0.3c0.5,0.2,0.9,0.5,1.2,0.9c0.3,0.4,0.6,0.9,0.8,1.4c0.2,0.6,0.3,1.2,0.3,1.9c0,0.6-0.1,1.2-0.2,1.7  c-0.1,0.5-0.4,1-0.7,1.5c-0.3,0.4-0.7,0.8-1.2,1c-0.5,0.3-1.1,0.4-1.7,0.4C122.7,175,122.1,174.9,121.7,174.7L121.7,174.7z   M141,168.3c-0.1-0.5-0.2-1-0.5-1.4c-0.2-0.4-0.5-0.7-0.9-1c-0.3-0.3-0.7-0.5-1.2-0.6c-0.5-0.1-0.9-0.2-1.5-0.2  c-0.7,0-1.3,0.1-1.9,0.3c-0.6,0.2-1.1,0.5-1.5,0.9c-0.4,0.4-0.8,1-1,1.7c-0.2,0.7-0.4,1.5-0.4,2.5c0,0.7,0.1,1.4,0.2,2.1  c0.2,0.7,0.4,1.2,0.8,1.7c0.4,0.5,0.8,0.9,1.4,1.2c0.6,0.3,1.2,0.4,2,0.4c0.7,0,1.3-0.1,1.8-0.3c0.5-0.2,0.9-0.5,1.3-0.8  c0.4-0.3,0.6-0.7,0.9-1.2c0.2-0.4,0.4-0.9,0.5-1.4h-1c-0.1,0.4-0.2,0.8-0.4,1.1c-0.2,0.3-0.4,0.6-0.7,0.9c-0.3,0.3-0.6,0.4-0.9,0.6  c-0.4,0.1-0.8,0.2-1.2,0.2c-0.7,0-1.3-0.1-1.8-0.4c-0.5-0.3-0.8-0.6-1.1-1c-0.3-0.4-0.5-0.9-0.6-1.5c-0.1-0.5-0.2-1.1-0.2-1.7  c0-0.6,0.1-1.2,0.2-1.7c0.1-0.5,0.4-1,0.6-1.4c0.3-0.4,0.7-0.7,1.1-1c0.4-0.2,1-0.4,1.6-0.4c0.9,0,1.6,0.2,2.1,0.6  c0.5,0.4,0.9,1,1.1,1.9H141L141,168.3z M147.1,175.6v-10.2h-1v10.2H147.1L147.1,175.6z M152.5,175.6l1.2-3.2h4.7l1.2,3.2h1  l-3.9-10.2h-1.1l-4,10.2H152.5L152.5,175.6z M156,166.2l2,5.4h-4L156,166.2L156,166.2z M171.7,175.6v-0.8h-6.6l6.6-8.6v-0.8h-7.2  v0.8h6l-6.6,8.6v0.8H171.7L171.7,175.6z M177.3,175.6v-10.2h-1v10.2H177.3L177.3,175.6z M182.6,172.6c0.2,0.6,0.5,1.2,0.9,1.7  c0.4,0.5,0.9,0.9,1.5,1.2c0.6,0.3,1.3,0.4,2.1,0.4c0.8,0,1.5-0.1,2.1-0.4c0.6-0.3,1.1-0.7,1.5-1.2c0.4-0.5,0.7-1.1,0.9-1.7  c0.2-0.6,0.3-1.3,0.3-2.1c0-0.7-0.1-1.5-0.3-2.1c-0.2-0.7-0.5-1.2-0.9-1.7c-0.4-0.5-0.9-0.9-1.5-1.2c-0.6-0.3-1.3-0.4-2.1-0.4  c-0.8,0-1.4,0.1-2,0.4c-0.6,0.3-1.1,0.7-1.5,1.2c-0.4,0.5-0.7,1.1-0.9,1.7c-0.2,0.7-0.3,1.4-0.3,2.1  C182.3,171.2,182.4,171.9,182.6,172.6L182.6,172.6z M185.3,174.7c-0.5-0.2-0.9-0.6-1.2-1c-0.3-0.4-0.5-0.9-0.7-1.5  c-0.1-0.6-0.2-1.1-0.2-1.7c0-0.6,0.1-1.2,0.2-1.7c0.1-0.5,0.4-1,0.7-1.5c0.3-0.4,0.7-0.8,1.2-1c0.5-0.3,1-0.4,1.7-0.4  c0.6,0,1.1,0.1,1.6,0.3c0.5,0.2,0.9,0.5,1.2,0.9c0.3,0.4,0.6,0.9,0.8,1.4c0.2,0.6,0.3,1.2,0.3,1.9c0,0.6-0.1,1.2-0.2,1.7  c-0.1,0.5-0.4,1-0.7,1.5c-0.3,0.4-0.7,0.8-1.2,1c-0.5,0.3-1,0.4-1.7,0.4C186.4,175,185.8,174.9,185.3,174.7L185.3,174.7z   M203.3,175.6h1.1v-10.2h-1v8.9h0l-5.9-8.9h-1.1v10.2h1v-8.9h0L203.3,175.6L203.3,175.6z M210.7,175.6v-10.2h-1v10.2H210.7  L210.7,175.6z"></path>	<path d="M84.4,203.9v-10.2h-1v10.2H84.4L84.4,203.9z M96,194.5h3.2v9.4h1v-9.4h3.2v-0.8H96V194.5L96,194.5z M113.5,203.9l1.2-3.2  h4.7l1.2,3.2h1l-3.9-10.2h-1.1l-4,10.2H113.5L113.5,203.9z M117.1,194.5l2,5.4h-4L117.1,194.5L117.1,194.5z M139.3,203.9v-0.8h-5.5  v-9.4h-1v10.2H139.3L139.3,203.9z M151.9,203.9v-10.2h-1v10.2H151.9L151.9,203.9z M164.5,203.9l1.2-3.2h4.7l1.2,3.2h1l-3.9-10.2  h-1.1l-4,10.2H164.5L164.5,203.9z M168.1,194.5l2,5.4h-4L168.1,194.5L168.1,194.5z M190.7,203.9h1.1v-10.2h-1v8.9h0l-5.9-8.9h-1.1  v10.2h1v-8.9h0L190.7,203.9L190.7,203.9z M211,203.9v-0.8h-6V199h5.3v-0.8H205v-3.7h5.8v-0.8H204v10.2H211L211,203.9z"></path>	<path class="st0" d="M154.5,186.8c0,1.1,0.4,1.9,1.2,2.5c0.8,0.6,1.8,0.9,3.2,0.9c1.3,0,2.3-0.3,3.1-0.9c0.7-0.6,1.1-1.4,1.1-2.3  c0-0.9-0.3-1.6-0.9-2.1c-0.4-0.3-1-0.6-1.8-0.7l-1.8-0.4c-0.7-0.2-1.1-0.3-1.4-0.4c-0.3-0.2-0.5-0.5-0.5-0.8c0-0.4,0.2-0.7,0.5-0.9  c0.3-0.2,0.8-0.3,1.4-0.3c0.5,0,0.9,0.1,1.3,0.3c0.5,0.3,0.8,0.7,0.8,1.3h2.1c0-1.1-0.4-1.9-1.2-2.5c-0.8-0.6-1.7-0.9-2.8-0.9  c-1.3,0-2.3,0.3-3,0.9c-0.7,0.6-1,1.4-1,2.3c0,1,0.3,1.7,1,2.2c0.4,0.3,1.2,0.5,2.2,0.8l1.1,0.2c0.6,0.1,1.1,0.3,1.4,0.5  c0.3,0.2,0.4,0.4,0.4,0.8c0,0.6-0.3,1-0.9,1.2c-0.3,0.1-0.7,0.2-1.3,0.2c-0.9,0-1.5-0.2-1.8-0.6c-0.2-0.2-0.3-0.6-0.4-1H154.5  L154.5,186.8z M169.1,188.4c-0.8,0-1.5-0.3-2-0.9c-0.5-0.6-0.8-1.5-0.8-2.7s0.3-2,0.8-2.7c0.5-0.6,1.2-0.9,2-0.9  c0.8,0,1.5,0.3,2,0.9c0.5,0.6,0.7,1.5,0.7,2.7c0,1.2-0.2,2-0.7,2.7C170.6,188.1,170,188.4,169.1,188.4L169.1,188.4L169.1,188.4z   M174,184.8c0-1.9-0.5-3.3-1.5-4.2c-0.8-0.8-1.9-1.2-3.4-1.2c-1.5,0-2.6,0.4-3.4,1.2c-1,0.9-1.6,2.3-1.6,4.2c0,1.8,0.5,3.2,1.6,4.2  c0.8,0.8,1.9,1.2,3.4,1.2c1.5,0,2.6-0.4,3.4-1.2C173.5,188,174,186.6,174,184.8L174,184.8L174,184.8z M175.3,184.9  c0,1.7,0.4,3,1.3,3.9c0.8,0.9,2,1.4,3.4,1.4c1.2,0,2.1-0.3,2.9-1c0.8-0.7,1.2-1.6,1.4-2.7h-2.1c-0.1,0.5-0.3,0.9-0.5,1.2  c-0.4,0.5-0.9,0.7-1.7,0.7c-0.7,0-1.3-0.3-1.8-0.9c-0.5-0.6-0.7-1.4-0.7-2.6c0-1.1,0.2-2,0.7-2.7c0.4-0.6,1-0.9,1.8-0.9  c0.7,0,1.3,0.2,1.7,0.7c0.2,0.2,0.4,0.6,0.5,1.1h2.1c0-0.6-0.3-1.3-0.7-1.9c-0.8-1.1-2-1.7-3.7-1.7c-1.3,0-2.3,0.4-3.1,1.3  C175.8,181.7,175.3,183.1,175.3,184.9L175.3,184.9L175.3,184.9z M188.1,179.7H186v10.2h2.1V179.7L188.1,179.7z M194.3,182l1.3,4  H193L194.3,182L194.3,182z M189.5,189.9h2.2l0.7-2.1h3.8l0.7,2.1h2.3l-3.6-10.2h-2.4L189.5,189.9L189.5,189.9z M200.5,189.9h7.3  v-1.8h-5.1v-8.4h-2.1V189.9L200.5,189.9z M211.1,179.7h-2.1v10.2h2.1V179.7L211.1,179.7z"></path>	<path class="st1" d="M82.8,186.8c0,1.1,0.4,1.9,1.2,2.5c0.8,0.6,1.8,0.9,3.2,0.9c1.3,0,2.3-0.3,3.1-0.9c0.7-0.6,1.1-1.4,1.1-2.3  c0-0.9-0.3-1.6-0.9-2.1c-0.4-0.3-1-0.6-1.8-0.7l-1.8-0.4c-0.7-0.2-1.1-0.3-1.4-0.4c-0.3-0.2-0.5-0.5-0.5-0.8c0-0.4,0.2-0.7,0.5-0.9  c0.3-0.2,0.8-0.3,1.4-0.3c0.5,0,0.9,0.1,1.3,0.3c0.5,0.3,0.8,0.7,0.8,1.3h2.1c0-1.1-0.4-1.9-1.2-2.5c-0.8-0.6-1.7-0.9-2.8-0.9  c-1.3,0-2.3,0.3-3,0.9c-0.7,0.6-1,1.4-1,2.3c0,1,0.3,1.7,1,2.2c0.4,0.3,1.2,0.5,2.2,0.8l1.1,0.2c0.6,0.1,1.1,0.3,1.4,0.5  c0.3,0.2,0.4,0.4,0.4,0.8c0,0.6-0.3,1-0.9,1.2c-0.3,0.1-0.7,0.2-1.3,0.2c-0.9,0-1.5-0.2-1.8-0.6c-0.2-0.2-0.3-0.6-0.4-1H82.8  L82.8,186.8z M98.1,182.9c0,0.5-0.1,0.9-0.4,1.2c-0.3,0.2-0.7,0.4-1.1,0.4h-1.9v-3h1.9c0.5,0,0.9,0.1,1.1,0.3  C98,182,98.1,182.4,98.1,182.9L98.1,182.9L98.1,182.9z M100.2,182.9c0-1.1-0.3-1.9-0.9-2.5c-0.6-0.5-1.4-0.8-2.4-0.8h-4.4v10.2h2.1  v-3.7h2.1c1.1,0,2-0.2,2.6-0.8C99.9,185,100.2,184.1,100.2,182.9L100.2,182.9L100.2,182.9z M106.2,188.4c-0.8,0-1.5-0.3-2-0.9  c-0.5-0.6-0.8-1.5-0.8-2.7s0.3-2,0.8-2.7c0.5-0.6,1.2-0.9,2-0.9c0.8,0,1.5,0.3,2,0.9c0.5,0.6,0.7,1.5,0.7,2.7c0,1.2-0.2,2-0.7,2.7  C107.7,188.1,107,188.4,106.2,188.4L106.2,188.4L106.2,188.4z M111.1,184.8c0-1.9-0.5-3.3-1.5-4.2c-0.8-0.8-1.9-1.2-3.4-1.2  c-1.5,0-2.6,0.4-3.4,1.2c-1,0.9-1.6,2.3-1.6,4.2c0,1.8,0.5,3.2,1.6,4.2c0.8,0.8,1.9,1.2,3.4,1.2c1.5,0,2.6-0.4,3.4-1.2  C110.5,188,111.1,186.6,111.1,184.8L111.1,184.8L111.1,184.8z M116.9,181.5c0.4,0,0.8,0.1,1,0.2c0.4,0.2,0.6,0.6,0.6,1.3  c0,0.6-0.2,1-0.6,1.2c-0.2,0.1-0.6,0.2-1,0.2h-2.3v-2.8H116.9L116.9,181.5z M117.3,179.7h-4.9v10.2h2.1v-4h2.1c0.6,0,1,0.1,1.2,0.3  c0.2,0.2,0.3,0.7,0.3,1.3l0,1c0,0.3,0,0.6,0.1,0.9c0,0.1,0.1,0.3,0.1,0.5h2.4v-0.3c-0.2-0.1-0.3-0.3-0.4-0.6c0-0.2-0.1-0.5-0.1-1  v-0.7c0-0.7-0.1-1.3-0.3-1.6c-0.2-0.3-0.5-0.6-1-0.8c0.6-0.2,1-0.5,1.2-1c0.2-0.5,0.4-0.9,0.4-1.4c0-0.4-0.1-0.8-0.2-1.1  c-0.1-0.3-0.3-0.6-0.5-0.9c-0.3-0.3-0.6-0.6-1-0.7C118.6,179.8,118,179.7,117.3,179.7L117.3,179.7L117.3,179.7z M121.5,179.7v1.8  h3.1v8.4h2.2v-8.4h3.1v-1.8H121.5L121.5,179.7z M133.7,179.7h-2.1v10.2h2.1V179.7L133.7,179.7z M140.1,187.5l-2.2-7.8h-2.3  l3.5,10.2h2l3.5-10.2h-2.2L140.1,187.5L140.1,187.5z M153.2,179.7h-7.5v10.2h7.8v-1.8h-5.7v-2.6h5v-1.8h-5v-2.2h5.4V179.7  L153.2,179.7z"></path>	<path class="st0" d="M143.6,151.8c4,3.6,11.8,5,17.6,5c12.7,0,21.4-5.7,21.4-17c0-8.9-5.6-13.2-15.2-16.8c-6-2.2-10.5-4.7-10.5-8.8  c0-3.2,2.3-6,6.6-6c5.3,0,9.8,4.8,11.8,12.7h3.8V107c-4.3-2.6-10.2-3.6-15.6-3.6c-12.7,0-20.6,5.9-20.6,16.4  c0,7.6,6.1,12.6,15.3,16c5.3,1.9,10.4,4.9,10.4,9.9c0,4-2.6,6.3-7.2,6.3c-6.9,0-12.4-7.2-15.1-15.7h-4L143.6,151.8L143.6,151.8z"></path>	<g>		<path class="st1" d="M83.2,18.1c7.2,11.7,0.4,28.9-15,38.3c-15.5,9.4-33.8,7.6-40.9-4.1c-7.2-11.7-0.4-28.9,15-38.3   C57.7,4.6,76.1,6.4,83.2,18.1L83.2,18.1z"></path>		<path class="st1" d="M116,44.6c0,0-159.1,135.5-31.2,200.6c14.4,7.3,21.3,10.3,21.3,10.3C4.7,241.9-61.9,127.1,116,44.6L116,44.6z   "></path>	</g>	<path class="st2" d="M139.1,151.8c4,3.6,11.8,5,17.6,5c12.7,0,21.4-5.7,21.4-17c0-8.9-5.6-13.2-15.2-16.8c-6-2.2-10.5-4.7-10.5-8.8  c0-3.2,2.3-6,6.6-6c5.3,0,9.8,4.8,11.8,12.7h3.8V107c-4.3-2.6-10.2-3.6-15.6-3.6c-12.7,0-20.6,5.9-20.6,16.4  c0,7.6,6.1,12.6,15.3,16c5.3,1.9,10.4,4.9,10.4,9.9c0,4-2.6,6.3-7.2,6.3c-6.9,0-12.4-7.2-15.1-15.7h-4L139.1,151.8L139.1,151.8z"></path>	<path class="st3" d="M136.1,150.1c-1.4,0.1-3.4,0-5-0.5c-1.4-0.4-3.3-1.7-3.3-7.8v-24c0-6.4-1-14.6-19.4-14.6  c-15.3,0-24.6,6-24.6,12.8c0,4.7,6.7,6.6,9.4,6.6c2.3,0,3.4-1.7,4.3-4.2c2.9-8.8,6.2-10.4,9.2-10.4c3,0,6,1.8,6,7.7v5.5  c-3.6,2.5-12.4,5.1-19.1,7.4c-8.2,2.8-11,7.1-11,13c0,7.8,5.2,15.1,15.7,15.1c6.7,0,11.2-3.6,14.9-6c1.4,3.2,3.1,6,8.1,6  c5.4,0,12-1.8,15.4-3.1L136.1,150.1L136.1,150.1z M112.5,141.5c-0.2,5.6-3.6,7.1-6.4,7.1c-4.1,0-7.7-3.2-7.7-8.7  c0-4.9,1.7-7.3,4.8-9c3.2-1.8,6.9-3.2,9.4-4.4V141.5L112.5,141.5z"></path>	<path class="st3" d="M188.4,146.2c0,4.4-0.8,4.8-6.8,5.1v4h29.2v-4c-5.9-0.3-6.8-0.7-6.8-5.1v-42.5l-0.7-0.6l-21.1,3v3.7l3.6,0.5  c1.7,0.2,2.5,1.1,2.5,5.3V146.2L188.4,146.2z M195.6,98.5c5.7,0,9.6-4.2,9.6-9.2c0-4.9-3.6-9-9.6-9c-5.8,0-9.5,4.2-9.5,9  C186.2,94.4,189.8,98.5,195.6,98.5L195.6,98.5z"></path></g></svg>