<?xml version="1.0" encoding="UTF-8"?><svg id="Livello_2" xmlns="http://www.w3.org/2000/svg" xmlns:xlink="http://www.w3.org/1999/xlink" viewBox="0 0 1000 215.3874"><defs><linearGradient id="Sfumatura_senza_nome_5" x1="1.7931" y1="107.509" x2="150.3301" y2="107.509" gradientUnits="userSpaceOnUse"><stop offset="0" stop-color="#0b1f3a"/><stop offset=".419" stop-color="#142c43"/><stop offset=".4432" stop-color="#142e48"/><stop offset=".4746" stop-color="#173658"/><stop offset=".5101" stop-color="#1b4473"/><stop offset=".5485" stop-color="#215699"/><stop offset=".5887" stop-color="#296ec8"/><stop offset=".616" stop-color="#2f80ed"/><stop offset=".6746" stop-color="#15a2ba"/><stop offset=".7275" stop-color="#00bf91"/><stop offset=".9198" stop-color="#a3e635"/></linearGradient><linearGradient id="Sfumatura_senza_nome_5-2" x1="51.2304" y1="164.3839" x2="158.753" y2="164.3839" xlink:href="#Sfumatura_senza_nome_5"/></defs><g id="Components"><g id="_3614823f-6fa3-447e-ad1d-a00bb67b8d73_1"><path d="M20.7421,215.018c-.7981-2.8675.7193-5.3595,1.361-8.188,3.3083-14.5832,5.9398-28.9144,7.198-43.9088,3.6139-43.0686.0949-75.4631-29.3011-108.1918,19.158,6.8106,33.5183,22.2058,39.6164,41.6103.6284,1.9995,1.146,3.6186,2.0613,5.8361,3.7064-16.7744,12.0442-31.5933,23.7155-44.1567,1.6171-1.7407,9.1695-8.6651,11.7007-10.3711,6.4055-4.3172,12.8975-7.7193,19.76-11.2642l16.6749-8.6138c13.2546-6.8469,24.3637-16.2232,34.9314-27.7699.5359,4.0889-1.8585,7.6568-3.3063,11.4124-6.4875,16.8281-21.3504,38.5975-35.3676,50.1839-17.861,14.7636-35.9791,20.8493-50.4306,34.9894-9.5147,9.3097-12.1007,21.95-14.047,34.8277l-4.0001,26.4661c-2.083,13.7815-10.941,45.2767-20.5664,57.1385Z" style="fill:url(#Sfumatura_senza_nome_5);"/><path d="M105.9405,152.7147c16.7121,20.0434,21.2748,40.1311,45.7385,57.3954,2.4605,1.7364,5.2094,2.701,7.074,5.2773-23.2609-1.4118-48.8977-18.4771-65.0651-34.2539-19.1289-18.6668-36.1452-40.6504-42.4574-67.7532,5.5604,2.2892,9.7677,5.8169,14.7006,8.8351,12.5994,7.7091,30.7643,19.4111,40.0095,30.4992Z" style="fill:url(#Sfumatura_senza_nome_5-2);"/><path d="M47.8973,46.7637c1.7046,6.8768-4.5035,24.2275-13.2824,19.5222-11.4888-6.1577-15.0181-21.3986-6.9781-31.7225,1.9852-2.5491,5.3809-3.7169,8.1417-3.6692,2.979.0515,5.9241,1.4869,7.6799,4.3067,2.8985,4.6548,3.4298,7.492,4.4389,11.5629Z" style="fill:#031e45;"/><path d="M299.2632,136.5322c2.4453,2.5831,8.3336,2.9431,8.1937,5.3675-.2271,3.9338-11.4444,4.4372-17.9248,2.207-1.1316-.3894-3.5348.1271-4.2038-.7958-.7713-2.9891-2.7635-3.838-4.9955-5.5012-3.2577-2.4275-5.8042-5.8625-8.7101-8.6353l-3.3789-3.2243c-4.6594-4.4462-20.1862-18.0894-24.9603-21.6502-2.7197-2.0285-4.8968-4.9331-8.2475-5.996-1.0848,7.7223-.4004,14.7082-.7825,21.8982-.181,3.4067-.6545,6.1693.1367,9.6616.5452,2.4065,1.4514,6.254.0497,8.4222-1.9264,2.98-5.8016,3.807-8.7668,5.2905-1.892.9465-4.8909,2.3666-6.4769.54-1.775-2.0443-.0037-4.8351.7125-6.8351,2.6024-7.2674.0346-10.9644,3.3055-14.5606-.8729-4.0647.835-8.1144.2523-11.8432l-.5643-3.6112c.5171,3.309.183-15.2823.1849-14.9361-.0377-6.647.4132-12.9761-1.3454-19.4638-.3972-1.4652.5186-2.9204,1.0397-4.0537.4616-1.004-.6164-1.802-.7014-2.7134l-1.2885-13.8198c-.1447-1.5521-2.4222-2.3445-1.7907-4.3603,1.5206-4.8534,4.7672-2.1945,11.644-7.306,1.3486-1.0024,2.4692-1.41,3.6244-.7499,3.9547,2.2599,1.1157,8.0511,1.823,18.0991.2289,3.252-.7217,6.2188-.6706,9.3061l.191,11.5305c.0535,3.227-1.1736,6.2851-.3321,9.602l12.4434-8.7262c5.9014-4.1385,10.3593-9.4169,15.2886-14.6165,1.8005-1.8992,16.1519-17.5453,16.3983-18.027,1.2522-2.4474,3.311-2.7247,5.7273-2.0772,1.9873.5326,4.2448-1.6024,6.1814-.7748,1.7571.751,1.0826,3.8052-.3756,4.7351-1.9386,1.2362-2.7374,2.8111-4.1181,4.4639-3.7183,4.4514-7.8073,8.4253-12.009,12.452l-13.5583,12.9936-6.5869,5.6508c-2.0216,1.7342-5.0094,2.5419-6.5315,4.704l15.1057,12.6533c-.6-.5026,17.7554,17.3594,17.3648,16.6692,1.3222,2.3362,1.9621,3.385,4.3241,4.6879,1.8395,1.0146,12.1257,11.0162,14.3285,13.3431Z" style="fill:#031e45;"/><path d="M487.7484,120.5376c-.9591-2.5979-5.739-7.2084-7.4748-9.0125l-8.1521-8.4728-6.3368-6.0534c-1.2218-1.1672-2.0748-3.0694-4.066-2.5498l-.1019,17.8252c-.012,2.1031.7392,3.9503.4811,6.1449-2.6733,1.9443-5.5038,4.3082-8.9426,4.4452-1.7338.0691-1.7878-1.5534-2.0179-2.4267-.3488-1.3242.744-2.3992,1.2665-3.4901,1.7606-3.6758,1.0425-7.8216,1.1432-11.8465.2914-11.6469.2453-22.9988-.853-34.6723-.1216-1.2927-2.2289-1.9245-1.2187-3.4237,1.9958-2.9619,10.4285-3.0243,14.4749-3.0053l10.8682.0511c1.8942.0089,3.3185,1.3288,5.5541,1.1664,4.337-.315,9.4595,3.0409,9.6633,8.0122.2078,5.0685-3.5859,9.8516-7.3056,13.2413-3.1526,2.8729-6.8902,3.2363-10.8307,5.4766,3.4792,1.4773,4.0442,4.0843,5.8615,5.9653l7.647,7.915c2.4549,2.541,5.317,4.4798,6.9856,7.8399,2.0041,4.0357,8.1038,3.981,7.3235,5.671-1.5028,3.2551-5.3811,3.0894-8.5709,3.3556-2.164.1806-4.5185.225-5.3978-2.1567ZM480.5695,79.8884c1.2093-1.9773,2.6234-5.4401.2103-7.0993-5.2222-3.5905-11.8636-3.3652-18.0125-2.0333-1.0562,6.4582-1.4056,12.0747-.6982,18.5845,3.7514-5.3554,11.143,2.5781,18.5005-9.4518Z" style="fill:#031e45;"/><path d="M704.3523,119.3105c-2.6443,3.9991-7.0848,3.3244-10.7771,3.3543-3.4073.0275-3.5479-.727-5.6362-2.9248l-5.3307-5.61-5.8208-4.5927c-.3552-.2802-12.5162-11.4612-14.408-12.8003l-.4944,14.5964c-.0753,2.2221,1.3382,5.692-.2748,7.5631-.5457.633-7.9492,5.5168-9.655,3.0202-.4427-.6479-.2592-1.6097.107-2.5015,2.2014-5.3611,1.8423-11.0043,1.3312-16.7379-.5713-6.4094.5994-10.501.1101-18.8902l-.7142-12.246c-.089-1.5265-2.02-3.3701-.5043-4.7553,1.3554-1.2387,3.5309-.9204,5.1546-1.997,1.2774-.8469,4.0637-2.0975,5.0975-.8363.4668,9.5895-1.1506,16.2245-.1808,25.8579,5.4872-3.6939,10.7077-7.4068,14.7367-12.5576,1.8463-2.3603,3.3942-4.6356,5.5516-6.8122,1.4022-1.4146,1.6964-4.3836,3.9009-4.9913,1.9134-.5275,3.8503-.4517,5.7038-1.5193.8035-.4628,1.8731.0056,2.21.5158.298.4513.2216,1.6501-.2711,2.3048-5.9948,7.9664-15.3037,18.5449-24.0216,23.7394.9635,1.8752,2.4554,2.9526,4.1145,4.1958,2.8914,2.1665,5.2364,4.5485,7.9446,7.0157,1.6101,1.4668,4.9029,2.9311,5.4354,5.0432.7563,2.9997,2.4037,3.1071,4.3819,4.659,3.8073,2.9868,7.1774,6.6073,12.3092,7.9069Z" style="fill:#031e45;"/><path d="M582.0333,104.0745c-6.3565-.8219-12.6873-.3325-18.7298.5748-2.9521.4433-4.3581,2.9135-5.3419,5.2875l-5.0706,12.2357c-2.5407.1483-4.631.2936-7.0922.2074-.9009-.0315-1.4037-1.6499-.7805-2.2807,2.7673-2.8008,4.137-6.2,5.9873-9.5715,1.9837-3.6147,3.9519-6.8446,5.1059-10.8792.8196-2.8654,2.9364-5.5808,4.1952-8.4195l3.7892-8.545c1.5105-3.4064,6.843-13.6674,4.9214-16.1064,2.8468-.7563,5.4491-2.6987,7.8403-3.8428,1.9148-.9162,2.2192,2.2044,2.7363,3.3864l8.6442,19.7559c1.6116,3.6832,2.5881,7.9695,5.2767,11.0349,1.4054,1.6024,1.8053,2.6265,2.5486,4.6819,1.4009,3.8735,3.314,7.7634,5.4696,11.3378,1.1765,1.9508,3.77,4.0563,1.5997,6.6512-.2408.2879-8.4796,6.1996-8.9481,3.0228-2.142-14.524-4.0453-7.4297-6.5242-19.3664-1.6105,1.4628-3.3801,1.1257-5.6269.8352ZM574.627,98.3132c3.2305-1.0394,6.1142-.8325,9.882-.4279-.5751-4.0608-3.466-7.0216-5.0258-10.5839-1.7771-4.0587-3.6189-7.5799-5.7417-11.3164-1.2926,3.8736-3.088,6.7991-4.5531,10.2069l-4.8158,11.2014,10.2544.9198Z" style="fill:#031e45;"/><path d="M377.7412,104.0714c-5.3891-.6654-10.6857.2523-15.8805.4748-3.1521.1351-4.2242,1.4572-5.4029,4.3047l-5.4968,13.2792c-2.4151.0465-5.2938.7128-7.5091-.1986-1.6961-.6978.077-3.2411.7578-4.228,3.4475-4.9979,5.8737-10.2346,8.3702-15.7741.4285-.9507-.0638-2.7642,1.0037-3.2356,2.3314-1.0294,2.1601-3.1072,3.0896-4.9226,1.6096-3.1435,2.6183-6.3668,4.089-9.5772l5.4812-11.9652c.8246-1.8001,1.4615-3.1846.1727-5.1313,3.3067-1.0263,9.3571-7.7018,10.0602-2.8356.4126,2.8559,1.7315,4.9979,2.811,7.5165l7.6341,17.8119c1.4617,3.4105,2.3889,6.9628,5.6135,9.2412-.3188,2.7181.6293,4.9967,1.9336,7.1353,1.2775,2.0946,1.7054,4.3245,2.6896,6.455.9876,2.1377,3.3867,3.5729,3.0964,6.4783-.5829.8536-8.2163,6.3331-8.9024,3.9099l-2.5236-8.9122-4.6487-9.9924c-2.1995.5457-4.2402.4375-6.4386.1661ZM370.3377,98.0781c3.8135.0163,7.0627-.9677,10.9421-.3859-3.1711-9.082-5.3788-12.1641-9.532-20.5665-2.6834,2.5801-3.6302,5.7915-4.9768,8.9842l-5.2223,12.3817c2.993-1.8512,5.628-.427,8.789-.4135Z" style="fill:#031e45;"/><path d="M773.9872,90.2783c-.3303,2.7585,1.6089,6.8253.7456,14.8901-.2819,2.633-1.0536,4.7304.1046,7.4674.6107,1.4432.7929,5.1465-.2671,6.4945-1.8408,2.3409-5.8863,3.7063-8.6883,3.683-1.4566-.0121-1.5346-3.025-1.1856-4.0725,1.4529-4.3619,1.3061-8.9227,1.262-13.4663l-.2278-23.5065c-.0297-3.0654-1.4947-5.8362-.0932-9.4859-5.4506.1453-10.0003-.6483-15.1014-.0844-2.0222.2236-3.979,1.4339-6.1246.7717-.7988-2.7834,1.2663-5.3673,2.8905-6.8305,2.6906-2.4237,5.1764-2.3875,8.4793-1.8097,4.9211.8609,9.8216.9407,14.8274,1.1282l4.5552.1707,12.9611.5485,8.4892-1.7357c2.0549,2.2244-4.7356,9.3696-4.7667,9.3893-1.175.7409-2.5858-.2948-3.8643-.4119-4.1194-.3774-8.1144.335-12.6098-.4052-1.0317,3.6682-.174,7.1412-.6102,10.7843l-.776,6.4808Z" style="fill:#031e45;"/><rect x="233.6983" y="164.8575" width="97.9485" height="2.648" style="fill:#031e45;"/><rect x="931.4025" y="119.1798" width="2.6605" height="94.0058" transform="translate(766.4448 1098.8968) rotate(-89.9935)" style="fill:#031e45;"/><path d="M786.3889,175.0698c-4.2633,1.1069-9.1818.7638-12.8583-1.5741-4.2761-2.7192-4.7099-8.6527-1.7628-12.8246,3.9451-5.5847,12.4434-7.219,17.8555-3.4082,3.3663,2.3703,4.2895,5.4448,3.7179,9.0769-.6211,3.9472-2.4348,7.5571-6.9523,8.73ZM786.8592,171.625c3.8079-3.427,3.0936-10.4182-.9476-12.7742-3.9221-2.2866-7.601-1.2516-10.2919,1.6917-2.4612,2.692-2.2113,6.8087.4783,9.8538,2.6145,2.96,7.181,4.4508,10.7612,1.2288Z" style="fill:#031e45;"/><path d="M413.0949,167.7553c-1.3193,5.65-6.5526,8.1538-12.0422,7.9396-3.8345-.1496-7.9362-1.0138-10.0702-4.5306-1.915-3.1558-1.2701-7.4372.9013-10.5031,4.0451-5.7114,12.3348-7.189,17.9622-3.3035,3.5322,2.4389,4.2384,6.1601,3.2489,10.3976ZM407.2559,171.3441c2.2815-2.8223,2.8589-7.4068.9734-10.0312-2.3974-3.3367-6.102-4.5682-9.5299-3.2448-2.9392,1.1348-5.5379,4.4219-4.8066,7.8756.7019,3.3149,2.3974,6.0628,5.0818,6.7668,2.7518.7217,6.0859,1.3494,8.2813-1.3664Z" style="fill:#031e45;"/><path d="M824.0282,175.5852c-3.2581.3574-6.0491.0027-8.7272-1.1231-4.0474-1.7014-6.184-5.7897-4.909-10.2057,2.0003-6.9285,9.247-10.354,16.213-8.4316,3.4912.9634,6.3435,4.0581,6.7374,7.6372.6867,6.2395-2.8812,11.4176-9.3141,12.1233ZM828.9483,168.2481c.7947-2.982.6216-5.1899-.907-7.3048-1.3754-1.9028-3.4996-3.2556-6.3996-3.3496-4.2779-.1386-7.5603,4.0439-7.4128,7.9783.1631,4.3516,3.2637,7.2517,7.5589,7.7562,3.6299.4264,6.1732-1.3753,7.1605-5.0801Z" style="fill:#031e45;"/><path d="M523.2742,161.2094c.3047,2.6176.9147,12.2659-.6123,13.3057-.7036.4791-1.7096,1.3257-3.2366.8837.3633-3.3727.6065-6.3819.37-9.8992-3.566-.526-6.809-.8436-10.2856.158-1.2038,4.093.5077,7.5265-1.2209,8.7886-.835.6097-2.1422,1.7233-3.655.9576.5824-6.235,1.5649-12.3846-.9206-18.6887l4.8986-1.7238c1.3806,2.2166.7205,4.3594-.2929,6.7268,2.7362,1.4498,5.3777,1.3132,8.2548.7251,1.0198-.2084,2.6786.893,3.13-.8806.3476-1.3656-.8282-3.1259-.5833-4.4111.1889-.9912,2.7479-2.0668,3.5805-1.4952,1.5612,1.1281.388,3.9622.5732,5.5531Z" style="fill:#031e45;"/><path d="M451.0241,173.4725c-1.2777-3.5089-3.8656-6.3498-5.3639-9.8522-1.3102-3.0614-2.4387-5.8179-4.1639-8.7755-1.1805.3568-3.6645.7848-4.1769,2.1274l-1.8939,4.9812c-1.7319,4.5272-3.7166,8.4902-6.1229,12.8098-.415.8172,1.9003,1.1935,2.4842.8432,1.8939-1.161,1.4074-2.8215,2.7825-5.1693,3.1521-.8302,7.2708-2.0367,10.397-.7395,1.8679.8562,1.4981,4.3068,2.6462,5.7012.9989,1.2,3.8528-.7069,3.4116-1.9263ZM437.3323,165.0277c.0065-.6032.0907-1.5696.5254-2.6592.428-1.0963,1.0312-1.8551,1.4397-2.3026.2855.6681.6811,1.4593,1.2259,2.2896.5449.8301,1.1091,1.5046,1.615,2.0365-1.602.2076-3.204.4217-4.8061.6356Z" style="fill:#031e45;"/><path d="M613.1312,166.7442c1.1768-2.2774,5.1078-2.1238,7.2998-1.7014.0859,3.1872.7699,8.4166-.3079,9.6936-.2216.2626-11.8724,2.6807-16.3717-1.2529-2.5756-2.2518-3.4048-7.406-2.2058-10.6126,2.4572-6.5714,10.2932-9.2287,16.4111-6.6687.9205.3852.3147,1.506.1252,1.9743-.9426,2.3297-5.3071-3.0308-9.9415.6792-2.1436,1.716-3.5499,4.178-3.0201,7.2601.4413,2.5676,1.7597,4.7525,3.8488,5.9822,1.9221,1.1315,5.5602,1.5762,7.3004.0191.9102-.8144.1987-2.642.0869-3.4993-.1174-.9-2.4277-.6943-3.2252-1.8737Z" style="fill:#031e45;"/><path d="M583.3358,161.9275c-.6516,8.1016,2.0752,13.4998-2.9606,13.6107-2.1398-4.7058-5.7395-8.9425-9.2095-13.0904-2.34,4.2913,2.9043,13.8363-4.1599,12.9868,1.3888-6.3495.7775-12.2237-.0055-18.193-.1342-1.1622,3.2485-2.4659,3.9444-1.5376,3.0391,4.3271,5.6392,8.9564,9.3662,13.2701.9129-3.6857.7926-8.101-1.2047-11.4261.2593-1.1982,2.4936-2.044,4.1585-2.3864.5962,2.4626.258,4.4423.0711,6.7659Z" style="fill:#031e45;"/><path d="M752.4926,161.2007c-1.4711,4.8174,1.9233,11.2305-.4386,13.1612-.7109.5811-1.9692,1.4928-3.2988.9989.2816-3.481.3886-6.5413-.1336-9.9394-3.6813-.5168-6.8991-.222-10.5723.0931-1.4068,4.8478,1.8818,8.1388-2.2598,9.8415-1.0379.4267-1.5497.1683-2.1733-.3256-.9846-.7799.082-1.3099.316-2.3185,1.2025-5.1825.4005-10.3592-.5925-15.5837,1.0301-1.0013,2.5209-1.4811,4.2706-1.732.5432,2.329.2265,4.1333-.1563,6.937l11.0946.6135c1.0902-1.813-.0666-3.5258-.1535-5.3747-.0588-1.2498,2.1869-1.922,3.4105-2.5395,1.6066,2.0001,1.3581,3.9703.6869,6.1682Z" style="fill:#031e45;"/><path d="M677.5835,172.8253c-4.24,4.1573-11.7713,3.934-15.6486-.1192-.1283-1.3342,1.7649-2.9209,2.8108-3.1629.7439,1.8264,1.8488,2.9517,2.961,3.4671,3.0241,1.4011,7.5036-.5498,7.749-3.2948.4509-5.0438-9.3106-2.1526-11.0817-7.0512-.395-1.0926-.2249-2.5263.6911-3.7542,2.7251-3.6532,8.5501-4.8406,12.2834-2.333.5528.3713-.1958,1.5928-.5977,1.7715-3.2155,1.4293-3.1862-1.6749-6.1306-.5979-1.0233.3743-3.561,1.4994-2.536,3.3174,1.9601,3.4766,9.8928,1.0833,11.1119,5.0147.5934,1.9136.2246,4.9412-1.6125,6.7425Z" style="fill:#031e45;"/><path d="M373.2457,171.059c3.6601,4.6049-9.3337,6.5344-15.5337,2.274-4.4799-3.0784-4.5457-8.9956-1.3631-13.2311,5.6858-7.5669,19.1214-4.9878,15.1233-1.6651-1.9907,1.6544-4.2556-2.7932-9.3557-.0642-1.7517.9373-3.3094,2.8195-3.7191,5.4705-.5608,3.629,1.6661,6.9062,4.6343,8.4676,3.1701,1.6676,6.6133.6707,10.2139-1.2518Z" style="fill:#031e45;"/><path d="M700.0988,165.2996c.789,3.8288,2.6805,6.201,5.6091,7.2547,3.1316,1.1267,6.0109.9657,8.8022-1.401,1,.1326,1.3385.1929,1.3823.6122.0723.6933.1612,1.913-.4994,2.2439-6.6833,3.348-16.88,1.531-18.8233-4.8005-1.0121-3.2974-.6157-6.5492,1.3281-9.0963,3.6212-4.7452,10.3739-5.9795,15.8533-3.877.7585.291.2003,1.6285-.0293,2.0477-1.2691,2.3172-4.2318-2.8606-10.0062.0817-2.0504,1.0448-4.2624,3.8015-3.6168,6.9346Z" style="fill:#031e45;"/><path d="M473.0288,170.022c7.5358,9.0504,13.5361-3.5285,14.273,3.0863-4.9418,3.3294-13.0941,4.1039-17.8271-.7139-4.651-4.7343-2.207-12.4429,3.3067-15.5054,5.4713-3.039,14.5013-1.2238,11.8147,1.2301-2.3899,2.1829-7.5158-3.846-11.9904,2.1595-2.0815,2.7937-2.0055,6.8266.4232,9.7434Z" style="fill:#031e45;"/><path d="M866.5593,172.3384c1.7318,5.1249-10.0333,2.4808-15.1835,3.3242,1.6958-6.4329,1.7619-12.6315.2998-18.8204,1.56-.7156,2.8046-1.5289,4.3457-1.8374,1.5615,2.4886.695,5.0058.1458,7.5309-.7107,3.268-.0306,6.6412-.1476,10.1546,3.6754.1057,6.4681.1816,10.5397-.3519Z" style="fill:#031e45;"/><path d="M547.3494,173.333c.0638,1.7816-2.8817,2.7306-4.3854,1.9054,1.0391-6.3314.7535-12.3722-.0874-18.3982,1.8427-.5999,2.881-1.6686,4.7021-1.652-.2886,6.246-.4497,11.9865-.2293,18.1447Z" style="fill:#031e45;"/><path d="M969.0613,122.3818c-1.7335-2.2604-4.1678-3.5965-5.5276-5.7545-2.0421-3.2411-16.5885-20.2743-21.0748-22.823l-.2001,17.9513c-.0291,2.6104,1.186,4.9042.446,7.7643-2.9222,1.7097-6.5261,4.4512-10.2738,3.8895-1.3689-.2052-1.0166-3.5886-.309-4.5227,1.1624-1.5344,2.7353-10.7997,1.2285-13.6988-.9969-1.9181.7885-3.4761.8976-4.8904.4622-5.9905-.1345-17.8032-.8391-24.1561-.2804-2.5286.7372-5.1675-.406-7.5526-.3719-.776-1.4333-1.2174-1.3782-1.9768.3034-4.1769,3.6395-1.8446,10.1715-5.2673.8354-.3042,1.8264,1.2494,2.6639,1.1095,7.2364-1.2083,14.0355-.239,21.0686,1.0651,3.7671.6985,7.3348,1.3672,9.2906,5.4069,2.5634,10.444-9.0728,20.2608-18.9458,22.2867,6.4139,9.2482,13.9826,17.2863,21.1547,25.9464,3.4216,4.1314,6.4447,8.014,10.12,11.9084,1.3195,1.3982,7.5581,10.5769,12.0709,11.4766.3626.0723.8,1.0093.78,1.35-.0266.4542-.5942,1.247-1.3475,1.3979l-5.8658,1.1756c-2.8683.5748-5.8237-.5192-8.7479-.9784-.5623-3.3732-2.508-5.203-4.4208-7.4272-3.0081-3.4979-5.702-7.0623-8.9742-10.3062-.7669-.7603-.753-2.2936-1.5817-3.3742ZM963.0523,78.4999c1.2737-2.0964,1.7369-5.858-.665-7.6128-5.7994-4.2367-13.3603-3.813-19.6702-.8222.1617,6.7675-.6133,12.5387.2375,19.2216,3.4513-4.5677,12.8436,1.1526,20.0977-10.7866Z" style="fill:#031e45;"/><path d="M884.9738,114.2845c1.8369-.3544,4.7675-2.2421,6.1922-.5892,1.7306,2.0077-.5956,4.776-2.0861,6.2565-4.21,4.182-7.0376,1.4291-18.019,1.6702l-21.8451.4794c-1.0809.0237-2.0806.4023-2.8486-.3196-.592-.5565-1.0767-1.9036-.5009-2.9229,1.2989-2.2991.4842-4.6486.7615-7.0707.4791-4.1851,1.5043-8.2072-.5033-12.2639,2.2685-4.0511.9115-7.9293.6789-12.0136l-.9801-17.21c-.0622-1.0915-1.4453-1.7322-1.987-2.7367,1.182-2.1989,3.8377-1.9904,5.8451-2.857,2.2946-.9906,3.7145-.7157,6.0061-.3921,6.2977.8893,12.5761.9897,18.8955,1.3255,2.6497.1408,5.5004-2.3661,7.8033-1.9002,2.3539,1.142-.2598,3.8016-1.1339,5.0383-2.2308,3.1562-4.6674,4.3844-8.486,3.6709-5.4186-1.0125-11.1339-.2031-16.7486-.4954.5444,2.7805.6721,4.3589-.124,7.2497,5.3848,1.0572,10.7968,1.6311,16.4723.8885,4.9243.7203,9.8668.7713,14.8369-.8041.53-.168,1.4446.4578,1.737.6198,2.1276,1.1788-3.466,6.7393-5.242,7.6056-6.5129-1.7352-13.6751-1.3126-20.2952-.618-1.8947.1988-6.4205-1.8754-7.2126,1.0719-1.6563,6.1624.1635,18.8521-.2558,25.8914,5.9609,1.2116,11.26.5957,16.9019.4942,3.9305-.0707,7.7233.7829,12.1374-.0686Z" style="fill:#031e45;"/></g></g></svg>